<svg width="130" height="130" xmlns="http://www.w3.org/2000/svg">
    <rect fill="#333333" width="130" height="130" />
    <path fill="#3d3d3d" d="m40,0,0,10,10,0,0-10zm40,0,0,10,10,0,0,10,10,0,0-10,10,0,0-10zm-70,0,0,10-10,0,0,10,10,0,0,10,10,0,0-10,10,0,0-10-10,0,0-10zm50,10,0,10-10,0,0,10,10,0,0,10,10,0,0-10,10,0,0-10-10,0,0-10zm50,10,0,10-10,0,0,10,10,0,0,10,10,0,0-10,10,0,0-10-10,0,0-10zm-80,10,0,10-10,0,0,10,10,0,0,10,10,0,0-10,10,0,0-10-10,0,0-10zm50,10,0,10-10,0,0,10,10,0,0,10,10,0,0-10,10,0,0-10-10,0,0-10zm-80,10,0,30,10,0,0-10,10,0,0-10-10,0,0-10zm130,10-10,0,0,10,10,0zm-80,0,0,10-10,0,0,10,10,0,0,10,10,0,0-10,10,0,0-10-10,0,0-10zm50,10,0,10-10,0,0,10,10,0,0,10,10,0,0-10,10,0,0-10-10,0,0-10zm-80,10,0,10-10,0,0,10,10,0,0,10,10,0,0-10,10,0,0-10-10,0,0-10zm50,10,0,10-10,0,0,10,10,0,0,10,10,0,0-10,10,0,0-10-10,0,0-10zm-70,30,10,0,0-10-10,0zm120-20,0,10-10,0,0,10,10,0,0,10,10,0,0-30zm-80,10,0,10-10,0,0,10,30,0,0-10-10,0,0-10zm50,10,0,10,10,0,0-10z" />
</svg>
